<?xml version="1.0" encoding="utf-8"?>
<!-- Generator: Adobe Adobe Illustrator 24.2.0, SVG Export Plug-In . SVG Version: 6.00 Build 0)  -->
<svg version="1.1" xmlns="http://www.w3.org/2000/svg" xmlns:xlink="http://www.w3.org/1999/xlink" x="0px" y="0px" width="1500px"
	 height="1500px" viewBox="0 0 1500 1500" style="enable-background:new 0 0 1500 1500;" xml:space="preserve">
<style type="text/css">
	.st0{fill:#CD7A19;stroke:#2C2205;stroke-miterlimit:10;}
	.st1{fill:#FFDFAA;stroke:#2C2205;stroke-miterlimit:10;}
	.st2{fill:none;stroke:#2C2205;stroke-width:25;stroke-linecap:round;stroke-linejoin:round;stroke-miterlimit:10;}
	.st3{fill:#CD7A19;}
	.st4{fill:#FFDFAA;}
	.st5{fill:none;stroke:#2C2205;stroke-width:20;stroke-linecap:round;stroke-linejoin:round;stroke-miterlimit:10;}
	.st6{fill:none;stroke:#2C2205;stroke-width:51.9136;stroke-linecap:round;stroke-linejoin:round;stroke-miterlimit:10;}
	.st7{fill:none;stroke:#F15A24;stroke-width:25;stroke-linecap:round;stroke-linejoin:round;stroke-miterlimit:10;}
	.st8{fill:#FFFF57;stroke:#2C2205;stroke-width:13.9403;stroke-miterlimit:10;}
	.st9{fill:#E6AA73;stroke:#2C2205;stroke-width:15;stroke-miterlimit:10;}
	
		.st10{fill:#DEC192;stroke:#2C2205;stroke-width:3.9886;stroke-miterlimit:10;stroke-dasharray:9.5726,9.5726,9.5726,9.5726,9.5726,9.5726;}
	.st11{fill:#DEC192;}
	.st12{fill:#2C2205;}
	.st13{fill:#503F0A;}
	.st14{fill:none;stroke:#2C2205;stroke-width:15;stroke-linecap:round;stroke-linejoin:round;stroke-miterlimit:10;}
	.st15{fill:#85633C;}
	.st16{fill:#4A2E0F;}
	.st17{fill:#FFFFFF;}
	.st18{fill:#FFFF00;stroke:#C1272D;stroke-width:1.1191;stroke-miterlimit:10;}
	.st19{fill:none;stroke:#4A2E0F;stroke-width:3;stroke-miterlimit:10;}
</style>
<g id="shippo">
	<path id="shippo-base-color" class="st0" d="M1030.93,1030.49c0,0,56.47,25.16,107.73-4.85c114.93-67.28,46.9-139.96,8.99-109.27
		c-7.39,5.98-9.89,32.58-26.8,23.93c-19.66-10.06-31.84-53.35-25.35-74.89c34.95-116.14,206.9-122.68,244.68,18.34
		c22.21,82.91-56.49,171.4-56.49,171.4s26.02-8.8,27.72-0.32c9.58,47.72-117.44,64.98-117.44,64.98s17.57,14.14,10.47,18.35
		c-51.61,30.55-185.28-50.19-185.28-50.19l-45.23-0.43L1030.93,1030.49z"/>
	<path id="shippo-accent-color" class="st1" d="M1116.34,934c-97.93-129.18,144.86-252.4,218.09-52.89
		c29.57,80.58-56.49,171.4-56.49,171.4s26.02-8.8,27.72-0.32c9.58,47.72-151.28,78.39-126.45,62.22
		c37.8-24.61,99.66-98.06,111.3-155.03c19.02-93.08-49.11-165.28-125.16-124.3C1104.9,867.66,1127.98,949.36,1116.34,934z"/>
	<path id="shippo-border_2_" class="st2" d="M1025.18,1027.86c0,0,56.47,25.16,107.73-4.85c114.93-67.28,46.9-139.96,8.99-109.27
		c-7.39,5.98-9.89,32.58-26.79,23.93c-19.66-10.06-31.84-53.35-25.35-74.89c34.95-116.14,206.9-122.68,244.68,18.34
		c22.21,82.91-56.49,171.4-56.49,171.4s26.02-8.8,27.72-0.32c9.58,47.72-117.44,64.98-117.44,64.98s17.57,14.14,10.47,18.35
		c-51.61,30.55-185.28-50.19-185.28-50.19l-45.23-0.43L1025.18,1027.86z"/>
</g>
<g id="bg-base-color">
	<path class="st3" d="M605.66,175.05c0,0-125.88-161.34-184.61-144.25c-64.5,18.77-47.6,312.15-29.63,313.54
		C593.6,359.99,605.66,175.05,605.66,175.05z"/>
	<path class="st3" d="M845.33,175.05c0,0,125.88-161.34,184.61-144.25c64.5,18.77,47.6,312.15,29.63,313.54
		C857.39,359.99,845.33,175.05,845.33,175.05z"/>
	<path class="st3" d="M1085.25,468c0,0-2.06-76.93-23.84-113.9L851.37,170.64c-22.91-8.42-97.96-26.74-149.03-18.37
		c-0.72,0.12,3.57,608.59,2.29,612.02c121.67-1.92,251.93-28.77,314.08-71.63c81.14-55.96,58.53-155.01,58.53-155.01
		s20.86,64.25,35.64,17.14C1120.48,530.53,1085.25,468,1085.25,468z"/>
	<path class="st3" d="M362,468c0,0,2.06-76.93,23.84-113.9l210.04-183.45c22.91-8.42,97.96-26.74,149.03-18.37
		c0.72,0.12-3.57,608.59-2.29,612.02c-121.67-1.92-251.93-28.77-314.08-71.63c-81.14-55.96-58.53-155.01-58.53-155.01
		s-20.86,64.25-35.64,17.14C326.77,530.53,362,468,362,468z"/>
	<polygon class="st3" points="412.24,1188.77 472.44,1164.52 427.02,982.09 450.24,743.77 973.24,734.77 1057.66,867.79 
		1125.53,1031.43 1147.48,1143.61 1121.99,1219.69 1057.24,1270.77 987.8,1282.74 933.79,1265.64 919.06,1293.79 844.75,1316.33 
		778.48,1292.72 761.13,1259.75 647.23,1259.66 631.07,1296.08 535.89,1314.3 470.36,1278.48 423.1,1280.56 391.83,1244.38 	"/>
</g>
<g id="bg-accent-color">
	<path class="st4" d="M544.58,208.6c4.25-2.78-64.3-93.67-90.95-79.55c-28.85,15.29-14.56,169.76-14.56,169.76
		S515.53,227.59,544.58,208.6z"/>
	<path class="st4" d="M905.77,208.6c-4.25-2.78,64.3-93.67,90.95-79.55c28.85,15.29,14.56,169.76,14.56,169.76
		S934.82,227.59,905.77,208.6z"/>
	<ellipse id="_x3C_パス_x3E_" class="st4" cx="719.77" cy="573.78" rx="149.92" ry="79.35"/>
	<path class="st4" d="M1073.69,563.02c-8.57-107.43-192.16-37.86-219.66,9.05l-143.91,67.55c0,0-7.83,136.2,4.03,131.76
		c0,0,183.3-21.39,283.91-72.31C1075.03,660.11,1076.23,594.75,1073.69,563.02z"/>
	<path class="st4" d="M375.54,563.48c8.57-107.43,192.16-37.86,219.66,9.05l143.91,67.55c0,0,7.83,136.2-4.03,131.76
		c0,0-183.3-21.39-283.91-72.31C374.2,660.57,373.01,595.21,375.54,563.48z"/>
	<path class="st4" d="M548.7,840.06c0-102.17,157.04-53,157.04-53s153.04-49.17,153.04,53s-69.41,185-155.04,185
		S548.7,942.23,548.7,840.06z"/>
	<path class="st4" d="M469.59,1213.28c35.44-66.08,172-39.46,172,4.7s-4.06,95.75-82,98.79
		C483.74,1315.13,450.32,1249.19,469.59,1213.28z"/>
	<path class="st4" d="M757.52,1213.28c35.44-66.08,172-39.46,172,4.7s-4.06,95.75-82,98.79
		C771.67,1315.13,738.26,1249.19,757.52,1213.28z"/>
	<path class="st4" d="M933.24,1231.11c1.69-26.46,32.89-42,71-42s89,23.49,89,50s-66.69,36.2-91,40
		C1002.24,1279.11,929.76,1285.62,933.24,1231.11z"/>
	<path class="st4" d="M393.75,1240.32c0-25.93,23.92-57.59,72-51.82c14.93,1.79,7.89,93.98-6,93.92
		C415.92,1282.22,393.75,1266.25,393.75,1240.32z"/>
</g>
<g id="body-border">
	<g id="atama_1_">
		<g>
			<g>
				<path class="st2" d="M1085.25,468c0,0-2.06-76.93-23.84-113.9l-10.55-9.21c2.86-0.14,5.76-0.33,8.7-0.55
					c17.97-1.39,34.87-294.77-29.63-313.54C977.48,15.53,871.44,142.64,849.4,169.94c-21.59-7.51-78.61-21.32-125.77-19.67
					c-45.16-1.58-99.36,11.01-122.84,18.68C577.1,139.7,472.9,15.7,421.05,30.79c-64.5,18.77-47.6,312.15-29.63,313.54
					c1.75,0.14,3.47,0.25,5.19,0.36l-10.77,9.41C364.06,391.07,362,468,362,468s-35.23,62.53-27.62,86.79
					c14.77,47.11,35.64-17.14,35.64-17.14s-22.61,99.05,58.53,155.01c55.73,38.43,166.22,63.99,276.17,70.24
					c-0.03,0.82-0.05,1.3-0.09,1.39c6.31-0.1,12.65-0.27,18.99-0.5c6.35,0.23,12.68,0.4,18.99,0.5c-0.03-0.09-0.06-0.57-0.09-1.39
					c109.96-6.26,220.44-31.81,276.17-70.24c81.14-55.96,58.53-155.01,58.53-155.01s20.86,64.25,35.64,17.14
					C1120.48,530.53,1085.25,468,1085.25,468z"/>
			</g>
		</g>
	</g>
	<path class="st2" d="M621.4,1022.4c0,50.38,5.96,73.15,15.28,180.6c0.96,11.1,46.64,115.71-88.3,110.97
		c-36.99-1.3-111.31-30.13-75.06-100.24c32.75-63.34-116.15-209.44-3.53-491.58"/>
	<path class="st2" d="M782.09,1021.16c0,0-2.6,143.6-15.01,187.38c-30.55,107.77,55.6,106.02,90.1,104.68
		c101.02-3.92,62.13-83.86,72.34-112.15c26.52-73.47,43.04-225.42,43.04-225.42"/>
	<path class="st2" d="M962.62,729.35c82.61,83.34,231.93,371.24,164.11,487.66c-26.09,44.79-130.85,92.8-191.58,47.59
		c0,0-39.23-71.33,65.82-83.09"/>
	<path class="st2" d="M466.91,1170.03c-69.28-4.4-121.96,113.76-2.9,113.04"/>
	<line class="st2" x1="647.01" y1="1258.27" x2="747" y2="1259.41"/>
	<path class="st2" d="M516.37,1256.41c-10.78,35.16,5.59,41.37,5.59,53.88"/>
	<path class="st2" d="M826.37,1256.41c-10.78,35.16,5.59,41.37,5.59,53.88"/>
	<path class="st2" d="M570.29,1260.41c10.78,35.16-5.59,41.37-5.59,53.88"/>
	<path class="st2" d="M884.29,1256.41c10.78,35.16-5.59,41.37-5.59,53.88"/>
	<path class="st5" d="M428.91,1241.1c-14.33,21.91-5.83,34.91-5.83,34.91"/>
	<path class="st5" d="M1004.91,1245.1c-14.33,21.91-5.83,34.91-5.83,34.91"/>
	<path class="st5" d="M956.91,1235.1c-14.33,21.91-5.83,34.91-5.83,34.91"/>
</g>
<g id="komakaino">
	<path class="st6" d="M469.2,732.56c80.96,36.61,404.65,42.18,504,1.91"/>
	<path class="st7" d="M469.2,732.56c80.96,36.61,404.65,42.18,504,1.91"/>
	<path class="st8" d="M761.77,768.45c3.56-25.4-76.59-21.93-76.67-0.43c-0.07,17.13,37.3,58.68,43.88,53.99
		C728.97,822.01,758.85,789.27,761.77,768.45z"/>
	<g id="potato">
		<path class="st9" d="M724.29,862.44c51.65-11.41,75.91-54.91,70.44-63.61c-5.62-8.94-39-23.29-80.43-13.81
			c-39.16,8.96-94.89,38.11-85.84,44.59C628.46,829.61,679.99,872.22,724.29,862.44z"/>
		<g>
			
				<ellipse transform="matrix(0.9981 -0.0612 0.0612 0.9981 -48.9878 42.8336)" class="st10" cx="675.24" cy="821.68" rx="1.61" ry="9.91"/>
			
				<ellipse transform="matrix(0.9981 -0.0612 0.0612 0.9981 -48.4904 44.5635)" class="st10" cx="703.74" cy="814.42" rx="1.61" ry="9.91"/>
			
				<ellipse transform="matrix(0.9981 -0.0612 0.0612 0.9981 -48.577 46.2978)" class="st10" cx="732.03" cy="816.7" rx="1.61" ry="9.91"/>
		</g>
	</g>
</g>
<g id="expression">
	<ellipse class="st11" cx="725" cy="683.1" rx="41.5" ry="21"/>
	<ellipse id="hana_1_" class="st12" cx="723.09" cy="531.45" rx="62" ry="44"/>
	<ellipse class="st13" cx="725.58" cy="507.87" rx="21.5" ry="12.5"/>
	<g id="matsuge">
		<path class="st14" d="M507.23,401.34l14.03,6.13"/>
		<path class="st14" d="M504.6,429.36l9.28-0.48"/>
		<path class="st14" d="M941.57,401.34l-14.03,6.13"/>
		<path class="st14" d="M944.2,429.36l-9.28-0.48"/>
	</g>
	<g id="omeme">
		<g id="hidari-omeme">
			<ellipse class="st15" cx="584.02" cy="447.72" rx="54.83" ry="54.28"/>
			
				<ellipse transform="matrix(0.9604 -0.2785 0.2785 0.9604 -103.0333 177.3921)" class="st16" cx="572.79" cy="451.31" rx="43.08" ry="47.56"/>
			
				<ellipse transform="matrix(0.5603 -0.8283 0.8283 0.5603 -83.6963 682.7263)" class="st17" cx="601.19" cy="420.19" rx="16.51" ry="23.22"/>
			<ellipse class="st17" cx="620.22" cy="446.49" rx="9.79" ry="8.11"/>
			<ellipse class="st17" cx="576.01" cy="484.82" rx="10.91" ry="10.07"/>
			<circle class="st17" cx="557.55" cy="481.18" r="3.08"/>
			<path class="st18" d="M563.23,420.15l1.4,4.53c0.49,1.58,1.94,2.65,3.59,2.65h4.91c3.6,0,5.14,4.57,2.28,6.75l-4.29,3.28
				c-1.25,0.96-1.78,2.59-1.31,4.1l1.56,5.06c1.08,3.5-2.97,6.32-5.88,4.1l-3.58-2.74c-1.35-1.03-3.22-1.03-4.57,0l-3.58,2.74
				c-2.91,2.22-6.96-0.6-5.88-4.1l1.56-5.06c0.47-1.51-0.06-3.14-1.31-4.1l-4.29-3.28c-2.86-2.18-1.31-6.75,2.28-6.75h4.91
				c1.65,0,3.11-1.07,3.59-2.65l1.4-4.53C557.13,416.61,562.14,416.61,563.23,420.15z"/>
			<ellipse class="st19" cx="584.02" cy="447.72" rx="54.83" ry="54.28"/>
		</g>
		<g id="migi-omeme_2_">
			<ellipse class="st15" cx="863.51" cy="447.72" rx="54.83" ry="54.28"/>
			
				<ellipse transform="matrix(0.9604 -0.2785 0.2785 0.9604 -91.9736 255.2381)" class="st16" cx="852.29" cy="451.31" rx="43.08" ry="47.56"/>
			
				<ellipse transform="matrix(0.5603 -0.8283 0.8283 0.5603 39.2008 914.2325)" class="st17" cx="880.69" cy="420.19" rx="16.51" ry="23.22"/>
			<ellipse class="st17" cx="899.71" cy="446.49" rx="9.79" ry="8.11"/>
			<ellipse class="st17" cx="855.51" cy="484.82" rx="10.91" ry="10.07"/>
			<circle class="st17" cx="837.04" cy="481.18" r="3.08"/>
			<path class="st18" d="M842.73,420.15l1.4,4.53c0.49,1.58,1.94,2.65,3.59,2.65h4.91c3.6,0,5.14,4.57,2.28,6.75l-4.29,3.28
				c-1.25,0.96-1.78,2.59-1.31,4.1l1.56,5.06c1.08,3.5-2.97,6.32-5.88,4.1l-3.58-2.74c-1.35-1.03-3.22-1.03-4.57,0l-3.58,2.74
				c-2.91,2.22-6.96-0.6-5.88-4.1l1.56-5.06c0.47-1.51-0.06-3.14-1.31-4.1l-4.29-3.28c-2.86-2.18-1.31-6.75,2.28-6.75h4.91
				c1.65,0,3.11-1.07,3.59-2.65l1.4-4.53C836.63,416.61,841.63,416.61,842.73,420.15z"/>
			<ellipse class="st19" cx="863.51" cy="447.72" rx="54.83" ry="54.28"/>
		</g>
		<g id="mayu_2_">
			
				<ellipse transform="matrix(0.1742 -0.9847 0.9847 0.1742 187.0988 871.0243)" class="st4" cx="612.89" cy="323.96" rx="32.79" ry="38.08"/>
			
				<ellipse transform="matrix(0.9847 -0.1742 0.1742 0.9847 -44.0982 150.2582)" class="st4" cx="833.74" cy="326.29" rx="38.08" ry="32.79"/>
		</g>
	</g>
	<g id="okuchi_4_">
		<path class="st14" d="M833.79,583.65c-19.32,40.93-100.77,40.41-109.57,9.64"/>
		<path class="st14" d="M825.46,574.01c0,0,8.08-2.97,13.65,2.97c4.88,5.2,5.26,13.04,5.26,13.04"/>
		<path class="st14" d="M613.38,583.65c19.32,40.93,100.77,40.41,109.57,9.64"/>
		<path class="st14" d="M621.71,574.01c0,0-8.08-2.97-13.65,2.97c-4.88,5.2-5.26,13.04-5.26,13.04"/>
	</g>
</g>
</svg>
