<?xml version="1.0" encoding="utf-8"?>
<!-- Generator: Adobe Adobe Illustrator 24.2.0, SVG Export Plug-In . SVG Version: 6.00 Build 0)  -->
<svg version="1.1" xmlns="http://www.w3.org/2000/svg" xmlns:xlink="http://www.w3.org/1999/xlink" x="0px" y="0px" width="1500px"
	 height="1500px" viewBox="0 0 1500 1500" style="enable-background:new 0 0 1500 1500;" xml:space="preserve">
<style type="text/css">
	.st0{fill:#CD7A19;stroke:#2C2205;stroke-miterlimit:10;}
	.st1{fill:#FFDFAA;stroke:#2C2205;stroke-miterlimit:10;}
	.st2{fill:none;stroke:#2C2205;stroke-width:25;stroke-linecap:round;stroke-linejoin:round;stroke-miterlimit:10;}
	.st3{fill:#CD7A19;}
	.st4{fill:#FFDFAA;}
	.st5{fill:none;stroke:#2C2205;stroke-width:20;stroke-linecap:round;stroke-linejoin:round;stroke-miterlimit:10;}
	.st6{fill:none;stroke:#2C2205;stroke-width:51.9136;stroke-linecap:round;stroke-linejoin:round;stroke-miterlimit:10;}
	.st7{fill:none;stroke:#F15A24;stroke-width:25;stroke-linecap:round;stroke-linejoin:round;stroke-miterlimit:10;}
	.st8{fill:#FFFF57;stroke:#2C2205;stroke-width:13.9403;stroke-miterlimit:10;}
	.st9{fill:#E6AA73;stroke:#2C2205;stroke-width:15;stroke-miterlimit:10;}
	
		.st10{fill:#DEC192;stroke:#2C2205;stroke-width:3.9886;stroke-miterlimit:10;stroke-dasharray:9.5726,9.5726,9.5726,9.5726,9.5726,9.5726;}
	.st11{fill:#DEC192;}
	.st12{fill:#2C2205;}
	.st13{fill:#6B2316;stroke:#2C2205;stroke-miterlimit:10;}
	.st14{fill:#D44F37;stroke:#2C2205;stroke-miterlimit:10;}
	.st15{fill:none;stroke:#2C2205;stroke-width:15;stroke-linecap:round;stroke-linejoin:round;stroke-miterlimit:10;}
	.st16{fill:#FFFFFF;stroke:#2C2205;stroke-miterlimit:10;}
	.st17{fill:none;stroke:#2C2205;stroke-width:11.2969;stroke-miterlimit:10;}
	.st18{fill:#85633C;}
	.st19{fill:#4A2E0F;}
	.st20{fill:#FFFFFF;}
	.st21{fill:#FFFF00;stroke:#D44F37;stroke-miterlimit:10;}
	.st22{fill:none;stroke:#4A2E0F;stroke-width:3;stroke-miterlimit:10;}
</style>
<g id="shippo">
	<path id="shippo-base-color" class="st0" d="M966.93,1060.49c0,0,56.47,25.16,107.73-4.85c114.93-67.28,46.9-139.96,8.99-109.27
		c-7.39,5.98-9.89,32.58-26.8,23.93c-19.66-10.06-31.84-53.35-25.35-74.89c34.95-116.14,206.9-122.68,244.68,18.34
		c22.21,82.91-56.49,171.4-56.49,171.4s26.02-8.8,27.72-0.32c9.58,47.72-117.44,64.98-117.44,64.98s17.57,14.14,10.47,18.35
		c-51.61,30.55-185.28-50.19-185.28-50.19l-45.23-0.43L966.93,1060.49z"/>
	<path id="shippo-accent-color" class="st1" d="M1052.34,964c-97.93-129.18,144.86-252.4,218.09-52.89
		c29.57,80.58-56.49,171.4-56.49,171.4s26.02-8.8,27.72-0.32c9.58,47.72-151.28,78.39-126.45,62.22
		c37.8-24.61,99.66-98.06,111.3-155.03c19.02-93.08-49.11-165.28-125.16-124.3C1040.9,897.66,1063.98,979.36,1052.34,964z"/>
	<path id="shippo-border_2_" class="st2" d="M961.18,1057.86c0,0,56.47,25.16,107.73-4.85c114.93-67.28,46.9-139.96,8.99-109.27
		c-7.39,5.98-9.89,32.58-26.79,23.93c-19.66-10.06-31.84-53.35-25.35-74.89c34.95-116.14,206.9-122.68,244.68,18.34
		c22.21,82.91-56.49,171.4-56.49,171.4s26.02-8.8,27.72-0.32c9.58,47.72-117.44,64.98-117.44,64.98s17.57,14.14,10.47,18.35
		c-51.61,30.55-185.28-50.19-185.28-50.19l-45.23-0.43L961.18,1057.86z"/>
</g>
<g id="bg-base-color">
	<path class="st3" d="M605.66,175.05c0,0-125.88-161.34-184.61-144.25c-64.5,18.77-47.6,312.15-29.63,313.54
		C593.6,359.99,605.66,175.05,605.66,175.05z"/>
	<path class="st3" d="M845.33,175.05c0,0,125.88-161.34,184.61-144.25c64.5,18.77,47.6,312.15,29.63,313.54
		C857.39,359.99,845.33,175.05,845.33,175.05z"/>
	<path class="st3" d="M1085.25,468c0,0-2.06-76.93-23.84-113.9L851.37,170.64c-22.91-8.42-97.96-26.74-149.03-18.37
		c-0.72,0.12,3.57,608.59,2.29,612.02c121.67-1.92,251.93-28.77,314.08-71.63c81.14-55.96,58.53-155.01,58.53-155.01
		s20.86,64.25,35.64,17.14C1120.48,530.53,1085.25,468,1085.25,468z"/>
	<path class="st3" d="M362,468c0,0,2.06-76.93,23.84-113.9l210.04-183.45c22.91-8.42,97.96-26.74,149.03-18.37
		c0.72,0.12-3.57,608.59-2.29,612.02c-121.67-1.92-251.93-28.77-314.08-71.63c-81.14-55.96-58.53-155.01-58.53-155.01
		s-20.86,64.25-35.64,17.14C326.77,530.53,362,468,362,468z"/>
	<path class="st3" d="M968.01,746.95c122.46,89.54,106.74,283.24-36.23,226.46"/>
	<path class="st3" d="M466.2,756.95c-96.79,77.28-92.74,273.24,50.23,216.46"/>
	<path class="st3" d="M462.49,996.1c0,14.35-3.11,51.73-7.89,65.26c-57.4,162.53,8.77,268.62,100.14,251.19"/>
	<path class="st3" d="M637.96,1207.09c89.29,32.04,87.44,29.96,181.98-1.02"/>
	<path class="st3" d="M493.95,1314.42c0,0,1.6,32.28-6.44,37.26c-147.5,91.33,71.12,188.51,137.6,47.98
		c14.01-29.61,52.72-78.31,29.42-104.89c-19.85-22.65,2.45-70.74,2.45-70.74"/>
	<path class="st3" d="M988.57,996.1c0,14.35,3.11,51.73,7.89,65.26c57.4,162.53-8.77,268.62-100.14,251.19"/>
	<path class="st3" d="M957.11,1314.42c0,0-1.6,32.28,6.44,37.26c147.5,91.33-71.12,188.51-137.6,47.98
		c-14.01-29.61-52.72-78.31-29.42-104.89c19.85-22.65-2.45-70.74-2.45-70.74"/>
	<polygon class="st3" points="467.29,754.97 717.12,799.6 964.84,745.85 986.65,977.22 988.21,1027.85 915.76,1295.82 
		786.79,1218.37 661.81,1217.15 542.62,1299.72 464.72,1033.3 467.84,979.55 	"/>
</g>
<g id="bg-accent-color">
	<path class="st4" d="M544.58,208.6c4.25-2.78-64.3-93.67-90.95-79.55c-28.85,15.29-14.56,169.76-14.56,169.76
		S515.53,227.59,544.58,208.6z"/>
	<path class="st4" d="M905.77,208.6c-4.25-2.78,64.3-93.67,90.95-79.55c28.85,15.29,14.56,169.76,14.56,169.76
		S934.82,227.59,905.77,208.6z"/>
	<ellipse id="_x3C_パス_x3E_" class="st4" cx="719.77" cy="573.78" rx="149.92" ry="79.35"/>
	<path class="st4" d="M1073.69,563.02c-8.57-107.43-192.16-37.86-219.66,9.05l-143.91,67.55c0,0-7.83,136.2,4.03,131.76
		c0,0,183.3-21.39,283.91-72.31C1075.03,660.11,1076.23,594.75,1073.69,563.02z"/>
	<path class="st4" d="M375.54,563.48c8.57-107.43,192.16-37.86,219.66,9.05l143.91,67.55c0,0,7.83,136.2-4.03,131.76
		c0,0-183.3-21.39-283.91-72.31C374.2,660.57,373.01,595.21,375.54,563.48z"/>
	<ellipse class="st4" cx="721.74" cy="942.06" rx="155.04" ry="185"/>
</g>
<g id="f-base-color">
	<path id="_x3C_パス_x3E__3_" class="st3" d="M466.23,850.24c0,0,46.76-61.83,126.92-30.51c47.16,18.43,59.66,69.93,67.04,89.02
		c51.4,133-181.5,128.46-155.04,3.97"/>
	<path id="_x3C_パス_x3E__4_" class="st3" d="M981.98,850.24c0,0-46.76-61.83-126.92-30.51c-47.16,18.43-59.66,69.93-67.04,89.02
		c-51.4,133,181.5,128.46,155.04,3.97"/>
</g>
<g id="f-accent-color">
	<ellipse class="st4" cx="585.85" cy="927.17" rx="75" ry="81"/>
	<ellipse class="st4" cx="863.35" cy="927.17" rx="75" ry="81"/>
	<ellipse class="st4" cx="522.67" cy="1408.76" rx="76" ry="52"/>
	<ellipse class="st4" cx="932.08" cy="1408.76" rx="76" ry="52"/>
</g>
<g id="body-border">
	<g id="maeashi">
		<g id="migi-maeashi-border_2_">
			<path id="_x3C_パス_x3E__6_" class="st2" d="M981.98,850.24c0,0-46.76-61.83-126.92-30.51
				c-47.16,18.43-59.66,69.93-67.04,89.02c-51.4,133,181.5,128.46,155.04,3.97"/>
			<path class="st5" d="M825.98,944.41c0,0-15.28,22.03,6.99,57.99"/>
			<path class="st5" d="M875.98,944.41c0,0-15.28,22.03,6.99,57.99"/>
			<path class="st2" d="M968.01,746.95c122.46,89.54,106.74,283.24-36.23,226.46"/>
		</g>
		<g id="hidari-maeashi-border_3_">
			<path id="_x3C_パス_x3E__5_" class="st2" d="M466.23,850.24c0,0,46.76-61.83,126.92-30.51c47.16,18.43,59.66,69.93,67.04,89.02
				c51.4,133-181.5,128.46-155.04,3.97"/>
			<path class="st5" d="M622.23,944.41c0,0,15.28,22.03-6.99,57.99"/>
			<path class="st5" d="M572.23,944.41c0,0,15.28,22.03-6.99,57.99"/>
			<path class="st2" d="M466.2,756.95c-96.79,77.28-92.74,273.24,50.23,216.46"/>
		</g>
		<g id="ushiroashi">
			<path class="st2" d="M462.49,996.1c0,14.35-3.11,51.73-7.89,65.26c-57.4,162.53,8.77,268.62,100.14,251.19"/>
			<path class="st5" d="M482.85,1401.56c0,0-21.26,16.35-10.97,57.37"/>
			<path class="st5" d="M532.85,1407.56c0,0-21.26,16.35-10.97,57.37"/>
			<path class="st2" d="M637.96,1207.09c89.29,32.04,87.44,29.96,181.98-1.02"/>
			<path class="st2" d="M493.95,1314.42c0,0,1.6,32.28-6.44,37.26c-147.5,91.33,71.12,188.51,137.6,47.98
				c14.01-29.61,52.72-78.31,29.42-104.89c-19.85-22.65,2.45-70.74,2.45-70.74"/>
			<path class="st2" d="M462.49,996.1c0,14.35-3.11,51.73-7.89,65.26c-57.4,162.53,8.77,268.62,100.14,251.19"/>
			<path class="st2" d="M493.95,1314.42c0,0,1.6,32.28-6.44,37.26c-147.5,91.33,71.12,188.51,137.6,47.98
				c14.01-29.61,52.72-78.31,29.42-104.89c-19.85-22.65,2.45-70.74,2.45-70.74"/>
			<path class="st5" d="M968.21,1401.56c0,0,21.26,16.35,10.97,57.37"/>
			<path class="st5" d="M918.21,1407.56c0,0,21.26,16.35,10.97,57.37"/>
			<path class="st2" d="M988.57,996.1c0,14.35,3.11,51.73,7.89,65.26c57.4,162.53-8.77,268.62-100.14,251.19"/>
			<path class="st2" d="M957.11,1314.42c0,0-1.6,32.28,6.44,37.26c147.5,91.33-71.12,188.51-137.6,47.98
				c-14.01-29.61-52.72-78.31-29.42-104.89c19.85-22.65-2.45-70.74-2.45-70.74"/>
		</g>
	</g>
	<g id="atama_1_">
		<g>
			<g>
				<path class="st2" d="M1085.25,468c0,0-2.06-76.93-23.84-113.9l-10.55-9.21c2.86-0.14,5.76-0.33,8.7-0.55
					c17.97-1.39,34.87-294.77-29.63-313.54C977.48,15.53,871.44,142.64,849.4,169.94c-21.59-7.51-78.61-21.32-125.77-19.67
					c-45.16-1.58-99.36,11.01-122.84,18.68C577.1,139.7,472.9,15.7,421.05,30.79c-64.5,18.77-47.6,312.15-29.63,313.54
					c1.75,0.14,3.47,0.25,5.19,0.36l-10.77,9.41C364.06,391.07,362,468,362,468s-35.23,62.53-27.62,86.79
					c14.77,47.11,35.64-17.14,35.64-17.14s-22.61,99.05,58.53,155.01c55.73,38.43,166.22,63.99,276.17,70.24
					c-0.03,0.82-0.05,1.3-0.09,1.39c6.31-0.1,12.65-0.27,18.99-0.5c6.35,0.23,12.68,0.4,18.99,0.5c-0.03-0.09-0.06-0.57-0.09-1.39
					c109.96-6.26,220.44-31.81,276.17-70.24c81.14-55.96,58.53-155.01,58.53-155.01s20.86,64.25,35.64,17.14
					C1120.48,530.53,1085.25,468,1085.25,468z"/>
			</g>
		</g>
	</g>
</g>
<g id="komakaino">
	<path class="st6" d="M469.2,732.56c80.96,36.61,404.65,42.18,504,1.91"/>
	<path class="st7" d="M469.2,732.56c80.96,36.61,404.65,42.18,504,1.91"/>
	<path class="st8" d="M761.77,768.45c3.56-25.4-76.59-21.93-76.67-0.43c-0.07,17.13,37.3,58.68,43.88,53.99
		C728.97,822.01,758.85,789.27,761.77,768.45z"/>
	<g id="potato">
		<path class="st9" d="M724.29,862.44c51.65-11.41,75.91-54.91,70.44-63.61c-5.62-8.94-39-23.29-80.43-13.81
			c-39.16,8.96-94.89,38.11-85.84,44.59C628.46,829.61,679.99,872.22,724.29,862.44z"/>
		<g>
			
				<ellipse transform="matrix(0.9981 -0.0612 0.0612 0.9981 -48.9878 42.8336)" class="st10" cx="675.24" cy="821.68" rx="1.61" ry="9.91"/>
			
				<ellipse transform="matrix(0.9981 -0.0612 0.0612 0.9981 -48.4904 44.5635)" class="st10" cx="703.74" cy="814.42" rx="1.61" ry="9.91"/>
			
				<ellipse transform="matrix(0.9981 -0.0612 0.0612 0.9981 -48.577 46.2978)" class="st10" cx="732.03" cy="816.7" rx="1.61" ry="9.91"/>
		</g>
	</g>
</g>
<g id="expression">
	<ellipse class="st11" cx="725" cy="706.77" rx="41.5" ry="15.36"/>
	<ellipse id="hana_1_" class="st12" cx="723.09" cy="531.45" rx="62" ry="44"/>
	<ellipse class="st12" cx="725.58" cy="507.87" rx="21.5" ry="12.5"/>
	<g id="okuchi_2_">
		<polygon class="st13" points="724.46,577.92 683.54,600.68 619.99,587.07 641.6,622.96 686.2,662.42 721.83,677.07 767.74,660.11 
			806.29,623.43 826.54,589.42 764.79,599.71 		"/>
		<ellipse class="st14" cx="726.04" cy="647.43" rx="52" ry="25.52"/>
		<path class="st15" d="M614.49,577.35c0,0,44.4,96.96,112.31,96.05c63.2-0.85,109.7-97.97,109.7-97.97"/>
		<path class="st16" d="M649.18,599.77l30.82,2.79c0,0-20.73,30.1-21.65,26.76l-7.63-5.16L649.18,599.77z"/>
		<path class="st17" d="M648.37,595.48c0.01,5.1-0.81,37.04,12.92,33.28c6.75-1.85,18.44-24.59,22.07-28.85"/>
		<path class="st16" d="M797.6,599.77l-30.82,2.79c0,0,20.73,30.1,21.65,26.76l7.63-5.16L797.6,599.77z"/>
		<path class="st17" d="M798.4,595.48c-0.01,5.1,0.81,37.04-12.92,33.28c-6.75-1.85-18.44-24.59-22.07-28.85"/>
		<path class="st15" d="M827.96,561.07c0,0,8.97,0.5,13.56,7.22c4.02,5.9,3.28,16.74,3.28,16.74"/>
		<path class="st15" d="M613.9,574.34c0,0,56.43,56.57,112.38,3.03"/>
		<path class="st15" d="M837.61,574.34c0,0-56.43,56.57-112.38,3.03"/>
		<path class="st15" d="M622.79,561.07c0,0-8.97,0.5-13.56,7.22c-4.02,5.9-3.28,16.74-3.28,16.74"/>
	</g>
	<g id="matsuge">
		<path class="st15" d="M507.23,401.34l14.03,6.13"/>
		<path class="st15" d="M504.6,429.36l9.28-0.48"/>
		<path class="st15" d="M941.57,401.34l-14.03,6.13"/>
		<path class="st15" d="M944.2,429.36l-9.28-0.48"/>
	</g>
	<g id="omeme">
		<g id="hidari-omeme">
			<ellipse class="st18" cx="584.02" cy="447.72" rx="54.83" ry="54.28"/>
			
				<ellipse transform="matrix(0.9604 -0.2785 0.2785 0.9604 -103.0333 177.3921)" class="st19" cx="572.79" cy="451.31" rx="43.08" ry="47.56"/>
			
				<ellipse transform="matrix(0.5603 -0.8283 0.8283 0.5603 -83.6963 682.7263)" class="st20" cx="601.19" cy="420.19" rx="16.51" ry="23.22"/>
			<ellipse class="st20" cx="620.22" cy="446.49" rx="9.79" ry="8.11"/>
			<ellipse class="st20" cx="576.01" cy="484.82" rx="10.91" ry="10.07"/>
			<circle class="st20" cx="557.55" cy="481.18" r="3.08"/>
			<path class="st21" d="M563.23,420.15l1.4,4.53c0.49,1.58,1.94,2.65,3.59,2.65h4.91c3.6,0,5.14,4.57,2.28,6.75l-4.29,3.28
				c-1.25,0.96-1.78,2.59-1.31,4.1l1.56,5.06c1.08,3.5-2.97,6.32-5.88,4.1l-3.58-2.74c-1.35-1.03-3.22-1.03-4.57,0l-3.58,2.74
				c-2.91,2.22-6.96-0.6-5.88-4.1l1.56-5.06c0.47-1.51-0.06-3.14-1.31-4.1l-4.29-3.28c-2.86-2.18-1.31-6.75,2.28-6.75h4.91
				c1.65,0,3.11-1.07,3.59-2.65l1.4-4.53C557.13,416.61,562.14,416.61,563.23,420.15z"/>
			<ellipse class="st22" cx="584.02" cy="447.72" rx="54.83" ry="54.28"/>
		</g>
		<g id="migi-omeme_2_">
			<ellipse class="st18" cx="863.51" cy="447.72" rx="54.83" ry="54.28"/>
			
				<ellipse transform="matrix(0.9604 -0.2785 0.2785 0.9604 -91.9736 255.2381)" class="st19" cx="852.29" cy="451.31" rx="43.08" ry="47.56"/>
			
				<ellipse transform="matrix(0.5603 -0.8283 0.8283 0.5603 39.2008 914.2325)" class="st20" cx="880.69" cy="420.19" rx="16.51" ry="23.22"/>
			<ellipse class="st20" cx="899.71" cy="446.49" rx="9.79" ry="8.11"/>
			<ellipse class="st20" cx="855.51" cy="484.82" rx="10.91" ry="10.07"/>
			<circle class="st20" cx="837.04" cy="481.18" r="3.08"/>
			<path class="st21" d="M842.73,420.15l1.4,4.53c0.49,1.58,1.94,2.65,3.59,2.65h4.91c3.6,0,5.14,4.57,2.28,6.75l-4.29,3.28
				c-1.25,0.96-1.78,2.59-1.31,4.1l1.56,5.06c1.08,3.5-2.97,6.32-5.88,4.1l-3.58-2.74c-1.35-1.03-3.22-1.03-4.57,0l-3.58,2.74
				c-2.91,2.22-6.96-0.6-5.88-4.1l1.56-5.06c0.47-1.51-0.06-3.14-1.31-4.1l-4.29-3.28c-2.86-2.18-1.31-6.75,2.28-6.75h4.91
				c1.65,0,3.11-1.07,3.59-2.65l1.4-4.53C836.63,416.61,841.63,416.61,842.73,420.15z"/>
			<ellipse class="st22" cx="863.51" cy="447.72" rx="54.83" ry="54.28"/>
		</g>
		<g id="mayu_2_">
			
				<ellipse transform="matrix(0.1742 -0.9847 0.9847 0.1742 187.0988 871.0243)" class="st4" cx="612.89" cy="323.96" rx="32.79" ry="38.08"/>
			
				<ellipse transform="matrix(0.9847 -0.1742 0.1742 0.9847 -44.0982 150.2582)" class="st4" cx="833.74" cy="326.29" rx="38.08" ry="32.79"/>
		</g>
	</g>
</g>
</svg>
